<mxfile host="app.diagrams.net" modified="2022-06-08T15:53:06.379Z" agent="5.0 (Macintosh; Intel Mac OS X 10_15_7) AppleWebKit/537.36 (KHTML, like Gecko) Chrome/102.0.5005.61 Safari/537.36" etag="Rq3TfH9-iAbMZXCgOtlt" version="18.1.3" type="github">
  <diagram id="C5RBs43oDa-KdzZeNtuy" name="Page-1">
    <mxGraphModel dx="2118" dy="937" grid="1" gridSize="10" guides="1" tooltips="1" connect="1" arrows="1" fold="1" page="1" pageScale="1" pageWidth="827" pageHeight="1169" math="0" shadow="0">
      <root>
        <mxCell id="WIyWlLk6GJQsqaUBKTNV-0" />
        <mxCell id="WIyWlLk6GJQsqaUBKTNV-1" parent="WIyWlLk6GJQsqaUBKTNV-0" />
        <mxCell id="0S6qas3bxSXRm0jyxC92-0" style="edgeStyle=orthogonalEdgeStyle;rounded=0;orthogonalLoop=1;jettySize=auto;html=1;exitX=1;exitY=0.5;exitDx=0;exitDy=0;" edge="1" parent="WIyWlLk6GJQsqaUBKTNV-1" source="zkfFHV4jXpPFQw0GAbJ--1" target="rn8gjheMr00SQCoQ5o9b-12">
          <mxGeometry relative="1" as="geometry">
            <Array as="points">
              <mxPoint x="589" y="720" />
              <mxPoint x="719" y="720" />
            </Array>
          </mxGeometry>
        </mxCell>
        <mxCell id="0S6qas3bxSXRm0jyxC92-1" value="1" style="edgeLabel;html=1;align=center;verticalAlign=middle;resizable=0;points=[];" vertex="1" connectable="0" parent="0S6qas3bxSXRm0jyxC92-0">
          <mxGeometry x="-0.9144" relative="1" as="geometry">
            <mxPoint x="20" y="17" as="offset" />
          </mxGeometry>
        </mxCell>
        <mxCell id="0S6qas3bxSXRm0jyxC92-2" value="0..n" style="edgeLabel;html=1;align=center;verticalAlign=middle;resizable=0;points=[];" vertex="1" connectable="0" parent="0S6qas3bxSXRm0jyxC92-0">
          <mxGeometry x="0.8421" y="3" relative="1" as="geometry">
            <mxPoint x="9" y="4" as="offset" />
          </mxGeometry>
        </mxCell>
        <mxCell id="0S6qas3bxSXRm0jyxC92-5" style="edgeStyle=orthogonalEdgeStyle;rounded=0;orthogonalLoop=1;jettySize=auto;html=1;exitX=0.5;exitY=0;exitDx=0;exitDy=0;entryX=0.505;entryY=1.014;entryDx=0;entryDy=0;entryPerimeter=0;" edge="1" parent="WIyWlLk6GJQsqaUBKTNV-1" source="zkfFHV4jXpPFQw0GAbJ--0" target="0S6qas3bxSXRm0jyxC92-4">
          <mxGeometry relative="1" as="geometry">
            <Array as="points">
              <mxPoint x="509" y="492" />
            </Array>
          </mxGeometry>
        </mxCell>
        <mxCell id="0S6qas3bxSXRm0jyxC92-6" value="1" style="edgeLabel;html=1;align=center;verticalAlign=middle;resizable=0;points=[];" vertex="1" connectable="0" parent="0S6qas3bxSXRm0jyxC92-5">
          <mxGeometry x="-0.8005" relative="1" as="geometry">
            <mxPoint x="10" y="3" as="offset" />
          </mxGeometry>
        </mxCell>
        <mxCell id="0S6qas3bxSXRm0jyxC92-7" value="0..n" style="edgeLabel;html=1;align=center;verticalAlign=middle;resizable=0;points=[];" vertex="1" connectable="0" parent="0S6qas3bxSXRm0jyxC92-5">
          <mxGeometry x="0.6783" y="3" relative="1" as="geometry">
            <mxPoint x="22" y="6" as="offset" />
          </mxGeometry>
        </mxCell>
        <mxCell id="zkfFHV4jXpPFQw0GAbJ--0" value="User" style="swimlane;fontStyle=0;align=center;verticalAlign=top;childLayout=stackLayout;horizontal=1;startSize=26;horizontalStack=0;resizeParent=1;resizeLast=0;collapsible=1;marginBottom=0;rounded=0;shadow=0;strokeWidth=1;arcSize=15;" parent="WIyWlLk6GJQsqaUBKTNV-1" vertex="1">
          <mxGeometry x="429" y="572" width="160" height="178" as="geometry">
            <mxRectangle x="230" y="140" width="160" height="26" as="alternateBounds" />
          </mxGeometry>
        </mxCell>
        <mxCell id="zkfFHV4jXpPFQw0GAbJ--1" value="_Id&#xa;name: String&#xa;email: String&#xa;password&#xa;active : Boolean&#xa;role: String&#xa;createdAt : Timestamp&#xa;updatedAt : Timestamp&#xa;" style="text;align=left;verticalAlign=top;spacingLeft=4;spacingRight=4;overflow=hidden;rotatable=0;points=[[0,0.5],[1,0.5]];portConstraint=eastwest;spacingTop=0;fontSize=12;spacingBottom=0;spacing=5;" parent="zkfFHV4jXpPFQw0GAbJ--0" vertex="1">
          <mxGeometry y="26" width="160" height="134" as="geometry" />
        </mxCell>
        <mxCell id="rn8gjheMr00SQCoQ5o9b-32" style="edgeStyle=orthogonalEdgeStyle;rounded=0;orthogonalLoop=1;jettySize=auto;html=1;" parent="WIyWlLk6GJQsqaUBKTNV-1" target="rn8gjheMr00SQCoQ5o9b-22" edge="1">
          <mxGeometry relative="1" as="geometry">
            <mxPoint x="322" y="650" as="sourcePoint" />
            <Array as="points" />
          </mxGeometry>
        </mxCell>
        <mxCell id="z93OoAOlrHXgm_mYGEe1-41" value="Asset" style="swimlane;fontStyle=0;align=center;verticalAlign=top;childLayout=stackLayout;horizontal=1;startSize=26;horizontalStack=0;resizeParent=1;resizeLast=0;collapsible=1;marginBottom=0;rounded=0;shadow=0;strokeWidth=1;arcSize=15;" parent="WIyWlLk6GJQsqaUBKTNV-1" vertex="1">
          <mxGeometry x="619" y="120" width="160" height="490" as="geometry">
            <mxRectangle x="550" y="140" width="160" height="26" as="alternateBounds" />
          </mxGeometry>
        </mxCell>
        <mxCell id="z93OoAOlrHXgm_mYGEe1-42" value="_Id&#xa;assetKey : String&#xa;tumbon : String&#xa;amphur : String&#xa;province : String&#xa;assetType : String&#xa;assetUrl : String&#xa;deedNo : String&#xa;dept : String&#xa;isFavorite : Boolean&#xa;landTyle : String&#xa;lawId : String&#xa;lotNo : String&#xa;mapImageSrc : String&#xa;nextRound : String&#xa;nextRoundDate : String&#xa;price : Int&#xa;pricePerWa : Int&#xa;saleNo : String&#xa;sizeNgan : Int&#xa;sizeRai : Int&#xa;sizeWa : Int&#xa;thumbSrc : String&#xa;totalArea : Int&#xa;note : String&#xa;email : String&#xa;createdAt : Timestamp&#xa;updatedAt : Timestamp&#xa;createdAt : Timestamp&#xa;updatedAt : Timestamp&#xa;user : FK&#xa;&#xa;&#xa;" style="text;align=left;verticalAlign=top;spacingLeft=4;spacingRight=4;overflow=hidden;rotatable=0;points=[[0,0.5],[1,0.5]];portConstraint=eastwest;fontFamily=Helvetica;spacingTop=0;fontSize=12;spacingBottom=0;spacing=5;" parent="z93OoAOlrHXgm_mYGEe1-41" vertex="1">
          <mxGeometry y="26" width="160" height="464" as="geometry" />
        </mxCell>
        <mxCell id="z93OoAOlrHXgm_mYGEe1-83" style="edgeStyle=orthogonalEdgeStyle;rounded=0;orthogonalLoop=1;jettySize=auto;html=1;" parent="WIyWlLk6GJQsqaUBKTNV-1" edge="1" target="z93OoAOlrHXgm_mYGEe1-98" source="zkfFHV4jXpPFQw0GAbJ--1">
          <mxGeometry relative="1" as="geometry">
            <mxPoint x="499" y="630.9999999999999" as="sourcePoint" />
            <mxPoint x="149" y="630.9999999999999" as="targetPoint" />
            <Array as="points">
              <mxPoint x="249" y="648" />
              <mxPoint x="249" y="648" />
            </Array>
          </mxGeometry>
        </mxCell>
        <mxCell id="z93OoAOlrHXgm_mYGEe1-84" value="0..n" style="edgeLabel;html=1;align=center;verticalAlign=middle;resizable=0;points=[];" parent="z93OoAOlrHXgm_mYGEe1-83" vertex="1" connectable="0">
          <mxGeometry x="0.827" y="-2" relative="1" as="geometry">
            <mxPoint x="11" y="-6" as="offset" />
          </mxGeometry>
        </mxCell>
        <mxCell id="z93OoAOlrHXgm_mYGEe1-85" value="0..n" style="edgeLabel;html=1;align=center;verticalAlign=middle;resizable=0;points=[];" parent="z93OoAOlrHXgm_mYGEe1-83" vertex="1" connectable="0">
          <mxGeometry x="-0.8749" y="1" relative="1" as="geometry">
            <mxPoint x="-6" y="-9" as="offset" />
          </mxGeometry>
        </mxCell>
        <mxCell id="z93OoAOlrHXgm_mYGEe1-97" value="Plan" style="swimlane;fontStyle=0;align=center;verticalAlign=top;childLayout=stackLayout;horizontal=1;startSize=26;horizontalStack=0;resizeParent=1;resizeLast=0;collapsible=1;marginBottom=0;rounded=0;shadow=0;strokeWidth=1;arcSize=15;" parent="WIyWlLk6GJQsqaUBKTNV-1" vertex="1">
          <mxGeometry x="49" y="572" width="160" height="180" as="geometry">
            <mxRectangle x="130" y="380" width="160" height="26" as="alternateBounds" />
          </mxGeometry>
        </mxCell>
        <mxCell id="z93OoAOlrHXgm_mYGEe1-98" value="_Id&#xa;name : String&#xa;desciption : String&#xa;price: String&#xa;every : String&#xa;period : String&#xa;active: String&#xa;createdAt : Timestamp&#xa;updatedAt : Timestamp" style="text;align=left;verticalAlign=top;spacingLeft=4;spacingRight=4;overflow=hidden;rotatable=0;points=[[0,0.5],[1,0.5]];portConstraint=eastwest;spacingTop=0;fontSize=12;spacingBottom=0;spacing=5;" parent="z93OoAOlrHXgm_mYGEe1-97" vertex="1">
          <mxGeometry y="26" width="160" height="154" as="geometry" />
        </mxCell>
        <mxCell id="z93OoAOlrHXgm_mYGEe1-125" style="rounded=0;orthogonalLoop=1;jettySize=auto;html=1;edgeStyle=orthogonalEdgeStyle;" parent="WIyWlLk6GJQsqaUBKTNV-1" source="zkfFHV4jXpPFQw0GAbJ--1" target="z93OoAOlrHXgm_mYGEe1-42" edge="1">
          <mxGeometry relative="1" as="geometry">
            <mxPoint x="779" y="620" as="targetPoint" />
            <Array as="points">
              <mxPoint x="699" y="648" />
            </Array>
          </mxGeometry>
        </mxCell>
        <mxCell id="z93OoAOlrHXgm_mYGEe1-143" value="0..n" style="edgeLabel;html=1;align=center;verticalAlign=middle;resizable=0;points=[];fontFamily=Helvetica;" parent="z93OoAOlrHXgm_mYGEe1-125" vertex="1" connectable="0">
          <mxGeometry x="0.2966" y="-1" relative="1" as="geometry">
            <mxPoint x="19" y="-9" as="offset" />
          </mxGeometry>
        </mxCell>
        <mxCell id="z93OoAOlrHXgm_mYGEe1-145" value="1" style="edgeLabel;html=1;align=center;verticalAlign=middle;resizable=0;points=[];fontFamily=Helvetica;" parent="z93OoAOlrHXgm_mYGEe1-125" vertex="1" connectable="0">
          <mxGeometry x="-0.6713" y="1" relative="1" as="geometry">
            <mxPoint x="-15" y="-7" as="offset" />
          </mxGeometry>
        </mxCell>
        <mxCell id="rn8gjheMr00SQCoQ5o9b-6" value="BankTransfer" style="swimlane;fontStyle=0;align=center;verticalAlign=top;childLayout=stackLayout;horizontal=1;startSize=26;horizontalStack=0;resizeParent=1;resizeLast=0;collapsible=1;marginBottom=0;rounded=0;shadow=0;strokeWidth=1;arcSize=15;" parent="WIyWlLk6GJQsqaUBKTNV-1" vertex="1">
          <mxGeometry x="429" y="870" width="160" height="190" as="geometry">
            <mxRectangle x="340" y="380" width="170" height="26" as="alternateBounds" />
          </mxGeometry>
        </mxCell>
        <mxCell id="rn8gjheMr00SQCoQ5o9b-7" value="_Id&#xa;name : String&#xa;account : String&#xa;transferDateTime : Date&#xa;transferTimeHH: String&#xa;transferTimeMM: String&#xa;amount : Int&#xa;status: String&#xa;createdAt : Timestamp&#xa;updatedAt : Timestamp&#xa;" style="text;align=left;verticalAlign=top;spacingLeft=4;spacingRight=4;overflow=hidden;rotatable=0;points=[[0,0.5],[1,0.5]];portConstraint=eastwest;spacingTop=0;fontSize=12;spacingBottom=0;spacing=5;" parent="rn8gjheMr00SQCoQ5o9b-6" vertex="1">
          <mxGeometry y="26" width="160" height="164" as="geometry" />
        </mxCell>
        <mxCell id="rn8gjheMr00SQCoQ5o9b-12" value="Card" style="swimlane;fontStyle=0;align=center;verticalAlign=top;childLayout=stackLayout;horizontal=1;startSize=26;horizontalStack=0;resizeParent=1;resizeLast=0;collapsible=1;marginBottom=0;rounded=0;shadow=0;strokeWidth=1;arcSize=15;" parent="WIyWlLk6GJQsqaUBKTNV-1" vertex="1">
          <mxGeometry x="614" y="870" width="160" height="190" as="geometry">
            <mxRectangle x="340" y="380" width="170" height="26" as="alternateBounds" />
          </mxGeometry>
        </mxCell>
        <mxCell id="rn8gjheMr00SQCoQ5o9b-13" value="_Id&#xa;firstDigit : String&#xa;lastDigit : String&#xa;mm : Date&#xa;yy: String&#xa;omiseCardId: String&#xa;createdAt : Timestamp&#xa;updatedAt : Timestamp&#xa;user: FK" style="text;align=left;verticalAlign=top;spacingLeft=4;spacingRight=4;overflow=hidden;rotatable=0;points=[[0,0.5],[1,0.5]];portConstraint=eastwest;spacingTop=0;fontSize=12;spacingBottom=0;spacing=5;" parent="rn8gjheMr00SQCoQ5o9b-12" vertex="1">
          <mxGeometry y="26" width="160" height="144" as="geometry" />
        </mxCell>
        <mxCell id="rn8gjheMr00SQCoQ5o9b-35" style="edgeStyle=orthogonalEdgeStyle;rounded=0;orthogonalLoop=1;jettySize=auto;html=1;entryX=0.5;entryY=0;entryDx=0;entryDy=0;" parent="WIyWlLk6GJQsqaUBKTNV-1" source="rn8gjheMr00SQCoQ5o9b-23" target="rn8gjheMr00SQCoQ5o9b-6" edge="1">
          <mxGeometry relative="1" as="geometry">
            <Array as="points">
              <mxPoint x="509" y="833" />
            </Array>
            <mxPoint x="429" y="813" as="sourcePoint" />
          </mxGeometry>
        </mxCell>
        <mxCell id="rn8gjheMr00SQCoQ5o9b-39" value="0..1" style="edgeLabel;html=1;align=center;verticalAlign=middle;resizable=0;points=[];" parent="rn8gjheMr00SQCoQ5o9b-35" vertex="1" connectable="0">
          <mxGeometry x="-0.5489" y="2" relative="1" as="geometry">
            <mxPoint x="-4" y="-7" as="offset" />
          </mxGeometry>
        </mxCell>
        <mxCell id="rn8gjheMr00SQCoQ5o9b-40" value="0..1" style="edgeLabel;html=1;align=center;verticalAlign=middle;resizable=0;points=[];" parent="rn8gjheMr00SQCoQ5o9b-35" vertex="1" connectable="0">
          <mxGeometry x="0.7614" relative="1" as="geometry">
            <mxPoint x="13" y="-3" as="offset" />
          </mxGeometry>
        </mxCell>
        <mxCell id="OSJ59UajpVIbR9Szr44o-4" style="edgeStyle=orthogonalEdgeStyle;rounded=0;orthogonalLoop=1;jettySize=auto;html=1;" parent="WIyWlLk6GJQsqaUBKTNV-1" source="rn8gjheMr00SQCoQ5o9b-23" target="OSJ59UajpVIbR9Szr44o-0" edge="1">
          <mxGeometry relative="1" as="geometry">
            <mxPoint x="119" y="880" as="targetPoint" />
            <Array as="points">
              <mxPoint x="124" y="833" />
            </Array>
          </mxGeometry>
        </mxCell>
        <mxCell id="OSJ59UajpVIbR9Szr44o-5" value="0..1" style="edgeLabel;html=1;align=center;verticalAlign=middle;resizable=0;points=[];" parent="OSJ59UajpVIbR9Szr44o-4" vertex="1" connectable="0">
          <mxGeometry x="0.3022" y="-1" relative="1" as="geometry">
            <mxPoint x="4" y="18" as="offset" />
          </mxGeometry>
        </mxCell>
        <mxCell id="OSJ59UajpVIbR9Szr44o-7" value="0..n" style="edgeLabel;html=1;align=center;verticalAlign=middle;resizable=0;points=[];" parent="OSJ59UajpVIbR9Szr44o-4" vertex="1" connectable="0">
          <mxGeometry x="-0.6541" y="-1" relative="1" as="geometry">
            <mxPoint x="10" y="-8" as="offset" />
          </mxGeometry>
        </mxCell>
        <mxCell id="rn8gjheMr00SQCoQ5o9b-22" value="Bill" style="swimlane;fontStyle=0;align=center;verticalAlign=top;childLayout=stackLayout;horizontal=1;startSize=26;horizontalStack=0;resizeParent=1;resizeLast=0;collapsible=1;marginBottom=0;rounded=0;shadow=0;strokeWidth=1;arcSize=15;" parent="WIyWlLk6GJQsqaUBKTNV-1" vertex="1">
          <mxGeometry x="242" y="760" width="160" height="300" as="geometry">
            <mxRectangle x="550" y="140" width="160" height="26" as="alternateBounds" />
          </mxGeometry>
        </mxCell>
        <mxCell id="rn8gjheMr00SQCoQ5o9b-23" value="_Id&#xa;startOn : Date&#xa;endOn : Date&#xa;subtotal : Number&#xa;discountCode: String&#xa;discount: Number&#xa;tax : Number&#xa;total : Number&#xa;paymentMethod : String&#xa;paymentStatus: String&#xa;active: Boolean&#xa;createdAt : Timestamp&#xa;updatedAt : Timestamp&#xa;card: FK&#xa;bankTransfer: FK&#xa;voucher: FK&#xa;plan: FK&#xa;user: FK&#xa;" style="text;align=left;verticalAlign=top;spacingLeft=4;spacingRight=4;overflow=hidden;rotatable=0;points=[[0,0.5],[1,0.5]];portConstraint=eastwest;spacingTop=0;fontSize=12;spacingBottom=0;spacing=5;" parent="rn8gjheMr00SQCoQ5o9b-22" vertex="1">
          <mxGeometry y="26" width="160" height="274" as="geometry" />
        </mxCell>
        <mxCell id="rn8gjheMr00SQCoQ5o9b-36" style="edgeStyle=orthogonalEdgeStyle;rounded=0;orthogonalLoop=1;jettySize=auto;html=1;" parent="WIyWlLk6GJQsqaUBKTNV-1" target="rn8gjheMr00SQCoQ5o9b-12" edge="1" source="rn8gjheMr00SQCoQ5o9b-22">
          <mxGeometry relative="1" as="geometry">
            <mxPoint x="380" y="793" as="sourcePoint" />
            <mxPoint x="689" y="880" as="targetPoint" />
            <Array as="points">
              <mxPoint x="669" y="803" />
            </Array>
          </mxGeometry>
        </mxCell>
        <mxCell id="rn8gjheMr00SQCoQ5o9b-37" value="1..n" style="edgeLabel;html=1;align=center;verticalAlign=middle;resizable=0;points=[];" parent="rn8gjheMr00SQCoQ5o9b-36" vertex="1" connectable="0">
          <mxGeometry x="-0.8598" y="2" relative="1" as="geometry">
            <mxPoint x="3" y="-8" as="offset" />
          </mxGeometry>
        </mxCell>
        <mxCell id="rn8gjheMr00SQCoQ5o9b-38" value="0.1" style="edgeLabel;html=1;align=center;verticalAlign=middle;resizable=0;points=[];" parent="rn8gjheMr00SQCoQ5o9b-36" vertex="1" connectable="0">
          <mxGeometry x="0.8375" y="4" relative="1" as="geometry">
            <mxPoint x="6" y="7" as="offset" />
          </mxGeometry>
        </mxCell>
        <mxCell id="OSJ59UajpVIbR9Szr44o-0" value="Voucher" style="swimlane;fontStyle=4;align=center;verticalAlign=top;childLayout=stackLayout;horizontal=1;startSize=26;horizontalStack=0;resizeParent=1;resizeLast=0;collapsible=1;marginBottom=0;rounded=0;shadow=0;strokeWidth=1;arcSize=15;" parent="WIyWlLk6GJQsqaUBKTNV-1" vertex="1">
          <mxGeometry x="49" y="870" width="160" height="190" as="geometry">
            <mxRectangle x="130" y="380" width="160" height="26" as="alternateBounds" />
          </mxGeometry>
        </mxCell>
        <mxCell id="OSJ59UajpVIbR9Szr44o-1" value="_Id&#xa;code : String&#xa;discount : Number&#xa;expired: Date&#xa;status: String&#xa;active: boolean&#xa;max: Number&#xa;used: Number&#xa;createdAt : Timestamp&#xa;updatedAt : Timestamp&#xa;" style="text;align=left;verticalAlign=top;spacingLeft=4;spacingRight=4;overflow=hidden;rotatable=0;points=[[0,0.5],[1,0.5]];portConstraint=eastwest;spacingTop=0;fontSize=12;spacingBottom=0;spacing=5;" parent="OSJ59UajpVIbR9Szr44o-0" vertex="1">
          <mxGeometry y="26" width="160" height="164" as="geometry" />
        </mxCell>
        <mxCell id="0S6qas3bxSXRm0jyxC92-3" value="Search" style="swimlane;fontStyle=0;align=center;verticalAlign=top;childLayout=stackLayout;horizontal=1;startSize=26;horizontalStack=0;resizeParent=1;resizeLast=0;collapsible=1;marginBottom=0;rounded=0;shadow=0;strokeWidth=1;arcSize=15;" vertex="1" parent="WIyWlLk6GJQsqaUBKTNV-1">
          <mxGeometry x="429" y="340" width="160" height="150" as="geometry">
            <mxRectangle x="130" y="380" width="160" height="26" as="alternateBounds" />
          </mxGeometry>
        </mxCell>
        <mxCell id="0S6qas3bxSXRm0jyxC92-4" value="_Id&#xa;name: String&#xa;url : String&#xa;isFavorite : Boolean&#xa;createdAt : Timestamp&#xa;updatedAt : Timestamp&#xa;user : Fk&#xa;" style="text;align=left;verticalAlign=top;spacingLeft=4;spacingRight=4;overflow=hidden;rotatable=0;points=[[0,0.5],[1,0.5]];portConstraint=eastwest;spacingTop=0;fontSize=12;spacingBottom=0;spacing=5;" vertex="1" parent="0S6qas3bxSXRm0jyxC92-3">
          <mxGeometry y="26" width="160" height="124" as="geometry" />
        </mxCell>
      </root>
    </mxGraphModel>
  </diagram>
</mxfile>
